<svg width="859" height="307" xmlns="http://www.w3.org/2000/svg" xmlns:xlink="http://www.w3.org/1999/xlink" overflow="hidden"><defs><clipPath id="clip0"><rect x="423" y="1948" width="859" height="307"/></clipPath><clipPath id="clip1"><rect x="423" y="1952" width="859" height="299"/></clipPath><clipPath id="clip2"><rect x="423" y="1952" width="859" height="299"/></clipPath><clipPath id="clip3"><rect x="423" y="1952" width="859" height="299"/></clipPath><linearGradient x1="113.911" y1="253.965" x2="195.37" y2="215.478" gradientUnits="userSpaceOnUse" spreadMethod="pad" id="fill4"><stop offset="0" stop-color="#D83333"/><stop offset="1" stop-color="#F041FF"/></linearGradient></defs><g clip-path="url(#clip0)" transform="translate(-423 -1948)"><path d="M446 2001.17C446 1973.46 468.461 1951 496.168 1951L1208.83 1951C1236.54 1951 1259 1973.46 1259 2001.17L1259 2201.83C1259 2229.54 1236.54 2252 1208.83 2252L496.168 2252C468.461 2252 446 2229.54 446 2201.83Z" stroke="#413B6E" stroke-width="5.72917" stroke-linejoin="round" stroke-miterlimit="10" fill-rule="evenodd"/><g clip-path="url(#clip1)"><g clip-path="url(#clip2)"><g clip-path="url(#clip3)"><path d="M122.846 226.281C114.409 218.569 111.947 202.365 115.461 190.627 121.556 198.027 130 200.373 138.747 201.695 152.249 203.738 165.51 202.974 178.054 196.802 179.489 196.097 180.815 195.155 182.383 194.205 183.56 197.618 183.866 201.066 183.455 204.575 182.455 213.12 178.203 219.721 171.439 224.724 168.735 226.726 165.873 228.514 163.08 230.402 154.498 236.201 152.177 243.002 155.401 252.895 155.478 253.136 155.546 253.377 155.72 253.965 151.338 252.004 148.138 249.149 145.699 245.396 143.124 241.433 141.899 237.05 141.834 232.309 141.802 230.001 141.802 227.672 141.491 225.398 140.734 219.852 138.13 217.368 133.225 217.224 128.19 217.079 124.208 220.19 123.152 225.092 123.071 225.467 122.954 225.839 122.838 226.275L122.846 226.281Z" fill="#FFFFFF" transform="matrix(1 0 0 1.00073 423 1952)"/><path d="M122.846 226.281C114.409 218.569 111.947 202.365 115.461 190.627 121.556 198.027 130 200.373 138.747 201.695 152.249 203.738 165.51 202.974 178.054 196.802 179.489 196.097 180.815 195.155 182.383 194.205 183.56 197.618 183.866 201.066 183.455 204.575 182.455 213.12 178.203 219.721 171.439 224.724 168.735 226.726 165.873 228.514 163.08 230.402 154.498 236.201 152.177 243.002 155.401 252.895 155.478 253.136 155.546 253.377 155.72 253.965 151.338 252.004 148.138 249.149 145.699 245.396 143.124 241.433 141.899 237.05 141.834 232.309 141.802 230.001 141.802 227.672 141.491 225.398 140.734 219.852 138.13 217.368 133.225 217.224 128.19 217.079 124.208 220.19 123.152 225.092 123.071 225.467 122.954 225.839 122.838 226.275L122.846 226.281Z" fill="url(#fill4)" transform="matrix(1 0 0 1.00073 423 1952)"/><path d="M74.6956 188.67C74.6956 188.67 99.6766 176.501 124.727 176.501L143.615 118.048C144.322 115.221 146.387 113.3 148.718 113.3 151.049 113.3 153.113 115.221 153.821 118.048L172.708 176.501C202.377 176.501 222.74 188.67 222.74 188.67 222.74 188.67 180.307 73.0766 180.224 72.8447 179.007 69.4272 176.951 67.2261 174.179 67.2261L123.261 67.2261C120.489 67.2261 118.516 69.4272 117.215 72.8447 117.124 73.0723 74.6956 188.67 74.6956 188.67Z" fill="#FFFFFF" transform="matrix(1 0 0 1.00073 423 1952)"/><path d="M338.078 151.488C338.078 161.731 325.337 167.848 307.696 167.848 296.213 167.848 292.153 165.003 292.153 159.028 292.153 152.768 297.193 149.781 308.674 149.781 319.036 149.781 327.856 149.923 338.078 151.203L338.078 151.488ZM338.218 138.826C331.917 137.404 322.396 136.55 311.055 136.55 278.012 136.55 262.471 144.375 262.471 162.584 262.471 181.506 273.111 188.761 297.754 188.761 318.616 188.761 332.756 183.497 337.938 170.551L338.776 170.551C338.636 173.681 338.498 176.811 338.498 179.229 338.498 185.916 339.617 186.485 345.077 186.485L370.84 186.485C369.439 182.502 368.6 171.262 368.6 161.588 368.6 151.203 369.019 143.379 369.019 132.851 369.019 111.369 356.139 97.7114 315.815 97.7114 298.454 97.7114 279.132 100.699 264.432 105.109 265.831 110.942 267.791 122.75 268.772 130.432 281.513 124.457 299.574 121.897 313.576 121.897 332.896 121.897 338.218 126.307 338.218 135.269L338.218 138.826Z" fill="#FFFFFF" transform="matrix(1 0 0 1.00073 423 1952)"/><path d="M408.904 157.463C405.405 157.89 400.643 157.89 395.743 157.89 390.563 157.89 385.803 157.747 382.582 157.321 382.582 158.459 382.442 159.739 382.442 160.877 382.442 178.66 394.064 189.045 434.947 189.045 473.449 189.045 485.91 178.803 485.91 160.735 485.91 143.663 477.651 135.269 441.108 133.42 412.684 132.14 410.165 129.01 410.165 125.453 410.165 121.328 413.804 119.193 432.846 119.193 452.588 119.193 457.908 121.897 457.908 127.587L457.908 128.868C460.71 128.725 465.75 128.583 470.93 128.583 475.83 128.583 481.15 128.725 484.231 129.01 484.231 127.729 484.371 126.591 484.371 125.595 484.371 104.682 467.008 97.8537 433.406 97.8537 395.603 97.8537 382.862 107.101 382.862 125.169 382.862 141.387 393.084 151.488 429.347 153.053 456.088 153.906 459.029 156.894 459.029 161.019 459.029 165.43 454.689 167.421 435.927 167.421 414.365 167.421 408.904 164.434 408.904 158.316L408.904 157.463Z" fill="#FFFFFF" transform="matrix(1 0 0 1.00073 423 1952)"/><path d="M532.122 82.489C521.902 92.0209 503.561 101.553 493.34 104.113 493.48 109.377 493.48 119.051 493.48 124.315L502.86 124.457C502.72 134.558 502.58 146.793 502.58 154.902 502.58 173.823 512.52 188.05 543.463 188.05 556.484 188.05 565.166 186.627 575.946 184.351 574.826 177.38 573.565 166.71 573.145 158.601 566.706 160.735 558.585 161.873 549.623 161.873 537.162 161.873 532.122 158.459 532.122 148.642 532.122 140.107 532.122 132.14 532.262 124.742 548.225 124.884 564.185 125.169 573.565 125.453 573.425 118.055 573.705 107.385 574.125 100.272 560.546 100.557 545.284 100.699 532.682 100.699 532.823 94.4394 532.963 88.4643 533.103 82.489L532.122 82.489Z" fill="#FFFFFF" transform="matrix(1 0 0 1.00073 423 1952)"/><path d="M615.746 120.047C615.886 112.649 616.026 106.39 616.166 100.272L588.023 100.272C588.443 112.507 588.443 125.026 588.443 143.379 588.443 161.731 588.303 174.392 588.023 186.485L620.226 186.485C619.666 177.949 619.526 163.58 619.526 151.345 619.526 131.997 627.367 126.449 645.148 126.449 653.409 126.449 659.29 127.445 664.47 129.294 664.61 122.039 666.01 107.955 666.849 101.695 661.529 100.13 655.648 99.1342 648.507 99.1342 633.247 98.9919 622.046 105.252 616.866 120.189L615.746 120.047Z" fill="#FFFFFF" transform="matrix(1 0 0 1.00073 423 1952)"/><path d="M755.935 142.809C755.935 158.316 744.734 165.572 727.093 165.572 709.592 165.572 698.391 158.743 698.391 142.809 698.391 126.876 709.732 120.901 727.093 120.901 744.594 120.901 755.935 127.303 755.935 142.809ZM785.197 142.098C785.197 111.227 761.115 97.427 727.093 97.427 692.931 97.427 669.689 111.227 669.689 142.098 669.689 172.828 691.39 189.331 726.953 189.331 762.795 189.331 785.197 172.828 785.197 142.098Z" fill="#FFFFFF" transform="matrix(1 0 0 1.00073 423 1952)"/></g></g></g></g></svg>