<svg width="276" height="778" xmlns="http://www.w3.org/2000/svg" xmlns:xlink="http://www.w3.org/1999/xlink" overflow="hidden"><defs><clipPath id="clip0"><rect x="2015" y="799" width="276" height="778"/></clipPath></defs><g clip-path="url(#clip0)" transform="translate(-2015 -799)"><path d="M2153.44 1549.68 2271.25 1505.68 2035.25 1506.06Z" stroke="#E95C6C" stroke-width="6.875" stroke-miterlimit="8" fill="none" fill-rule="evenodd"/><path d="M2153.25 1101.67 2153.25 1572.67" stroke="#E95C6C" stroke-width="6.875" stroke-miterlimit="8" fill="none" fill-rule="evenodd"/><path d="M2153.25 1101.67C2129.81 1250.7 2086.59 1397.47 2024.24 1539.67" stroke="#E95C6C" stroke-width="6.875" stroke-miterlimit="8" fill="none" fill-rule="evenodd"/><path d="M2284.25 1539.67C2220.97 1397.65 2177.07 1250.84 2153.25 1101.67" stroke="#E95C6C" stroke-width="6.875" stroke-miterlimit="8" fill="none" fill-rule="evenodd"/><path d="M2153.74 1464.68 2240.25 1430.68 2067.25 1430.68Z" stroke="#E95C6C" stroke-width="6.875" stroke-miterlimit="8" fill="none" fill-rule="evenodd"/><path d="M2153.25 1371.68 2211.25 1349.68 2095.25 1349.68Z" stroke="#E95C6C" stroke-width="6.875" stroke-miterlimit="8" fill="none" fill-rule="evenodd"/><path d="M2153.25 1273.68 2182.25 1261.68 2124.25 1261.68Z" stroke="#E95C6C" stroke-width="6.875" stroke-miterlimit="8" fill="none" fill-rule="evenodd"/><path d="M2067.25 1430.68 2154.25 1550.68" stroke="#E95C6C" stroke-width="6.875" stroke-miterlimit="8" fill="none" fill-rule="evenodd"/><path d="M2035.25 1505.68 2154.25 1464.68" stroke="#E95C6C" stroke-width="6.875" stroke-miterlimit="8" fill="none" fill-rule="evenodd"/><path d="M2095.25 1349.67 2153.25 1464.67" stroke="#E95C6C" stroke-width="6.875" stroke-miterlimit="8" fill="none" fill-rule="evenodd"/><path d="M2153.25 1371.66 2067.25 1430.66" stroke="#E95C6C" stroke-width="6.875" stroke-miterlimit="8" fill="none" fill-rule="evenodd"/><path d="M2153.25 1371.66 2240.25 1430.66" stroke="#E95C6C" stroke-width="6.875" stroke-miterlimit="8" fill="none" fill-rule="evenodd"/><path d="M2211.02 1349.67 2153.25 1464.7 2271.25 1505.67" stroke="#E95C6C" stroke-width="6.875" stroke-miterlimit="8" fill="none" fill-rule="evenodd"/><path d="M2153.25 1550.68 2240.25 1430.68" stroke="#E95C6C" stroke-width="6.875" stroke-miterlimit="8" fill="none" fill-rule="evenodd"/><path d="M2153.25 1273.68 2211.25 1349.68" stroke="#E95C6C" stroke-width="6.875" stroke-miterlimit="8" fill="none" fill-rule="evenodd"/><path d="M2155.25 1282.68 2095.25 1349.68" stroke="#E95C6C" stroke-width="6.875" stroke-miterlimit="8" fill="none" fill-rule="evenodd"/><path d="M2153.25 1372.68 2124.25 1261.68" stroke="#E95C6C" stroke-width="6.875" stroke-miterlimit="8" fill="none" fill-rule="evenodd"/><path d="M2153.25 1372.68 2182.25 1261.68" stroke="#E95C6C" stroke-width="6.875" stroke-miterlimit="8" fill="none" fill-rule="evenodd"/><path d="M2153.75 1217.68 2168.25 1211.68 2139.25 1211.68Z" stroke="#E95C6C" stroke-width="6.875" stroke-miterlimit="8" fill="none" fill-rule="evenodd"/><path d="M0.103338 222.559 85.2175 0.557809 354.103 0.557809 268.988 222.559Z" stroke="#E95C6C" stroke-width="6.875" stroke-linejoin="round" stroke-miterlimit="10" fill="none" fill-rule="evenodd" transform="matrix(6.12323e-17 1 1 -6.12323e-17 2036.5 802.5)"/><path d="M2043.75 895.676C2043.75 889.885 2048.45 885.175 2054.25 885.175 2060.04 885.175 2064.75 889.885 2064.75 895.676 2064.75 901.476 2060.04 906.177 2054.25 906.177 2048.45 906.177 2043.75 901.476 2043.75 895.676Z" fill-rule="evenodd"/><path d="M2069.75 887.676C2069.75 882.426 2074.23 878.176 2079.75 878.176 2085.26 878.176 2089.75 882.426 2089.75 887.676 2089.75 892.926 2085.26 897.177 2079.75 897.177 2074.23 897.177 2069.75 892.926 2069.75 887.676Z" fill-rule="evenodd"/><path d="M2232.75 823.676C2232.75 817.875 2237 813.176 2242.25 813.176 2247.5 813.176 2251.75 817.875 2251.75 823.676 2251.75 829.476 2247.5 834.177 2242.25 834.177 2237 834.177 2232.75 829.476 2232.75 823.676Z" fill-rule="evenodd"/><path d="M2093.75 879.176C2093.75 873.665 2098.23 869.176 2103.75 869.176 2109.26 869.176 2113.75 873.665 2113.75 879.176 2113.75 884.696 2109.26 889.176 2103.75 889.176 2098.23 889.176 2093.75 884.696 2093.75 879.176Z" fill-rule="evenodd"/><path d="M2115.75 869.676C2115.75 864.426 2120.45 860.176 2126.25 860.176 2132.04 860.176 2136.75 864.426 2136.75 869.676 2136.75 874.927 2132.04 879.177 2126.25 879.177 2120.45 879.177 2115.75 874.927 2115.75 869.676Z" fill-rule="evenodd"/><path d="M2139.75 861.676C2139.75 856.426 2144.45 852.175 2150.25 852.175 2156.04 852.175 2160.75 856.426 2160.75 861.676 2160.75 866.927 2156.04 871.177 2150.25 871.177 2144.45 871.177 2139.75 866.927 2139.75 861.676Z" fill-rule="evenodd"/><path d="M2163.75 851.676C2163.75 846.426 2168.22 842.176 2173.75 842.176 2179.27 842.176 2183.75 846.426 2183.75 851.676 2183.75 856.927 2179.27 861.177 2173.75 861.177 2168.22 861.177 2163.75 856.927 2163.75 851.676Z" fill-rule="evenodd"/><path d="M2187.75 843.676C2187.75 838.426 2192.22 834.176 2197.75 834.176 2203.27 834.176 2207.75 838.426 2207.75 843.676 2207.75 848.926 2203.27 853.177 2197.75 853.177 2192.22 853.177 2187.75 848.926 2187.75 843.676Z" fill-rule="evenodd"/><path d="M2210.75 832.176C2210.75 826.656 2215 822.176 2220.25 822.176 2225.5 822.176 2229.75 826.656 2229.75 832.176 2229.75 837.705 2225.5 842.176 2220.25 842.176 2215 842.176 2210.75 837.705 2210.75 832.176Z" fill-rule="evenodd"/><path d="M2045.75 920.676C2045.75 915.426 2050 911.176 2055.25 911.176 2060.5 911.176 2064.75 915.426 2064.75 920.676 2064.75 925.926 2060.5 930.177 2055.25 930.177 2050 930.177 2045.75 925.926 2045.75 920.676Z" fill-rule="evenodd"/><path d="M2070.75 911.676C2070.75 906.426 2075 902.176 2080.25 902.176 2085.5 902.176 2089.75 906.426 2089.75 911.676 2089.75 916.926 2085.5 921.177 2080.25 921.177 2075 921.177 2070.75 916.926 2070.75 911.676Z" fill-rule="evenodd"/><path d="M2232.75 847.676C2232.75 841.875 2237.23 837.176 2242.75 837.176 2248.26 837.176 2252.75 841.875 2252.75 847.676 2252.75 853.476 2248.26 858.177 2242.75 858.177 2237.23 858.177 2232.75 853.476 2232.75 847.676Z" fill-rule="evenodd"/><path d="M2094.75 903.176C2094.75 897.665 2099 893.176 2104.25 893.176 2109.5 893.176 2113.75 897.665 2113.75 903.176 2113.75 908.696 2109.5 913.176 2104.25 913.176 2099 913.176 2094.75 908.696 2094.75 903.176Z" fill-rule="evenodd"/><path d="M2115.75 894.676C2115.75 888.886 2120.45 884.176 2126.25 884.176 2132.04 884.176 2136.75 888.886 2136.75 894.676 2136.75 900.476 2132.04 905.177 2126.25 905.177 2120.45 905.177 2115.75 900.476 2115.75 894.676Z" fill-rule="evenodd"/><path d="M2141.75 885.676C2141.75 880.426 2146 876.176 2151.25 876.176 2156.5 876.176 2160.75 880.426 2160.75 885.676 2160.75 890.927 2156.5 895.177 2151.25 895.177 2146 895.177 2141.75 890.927 2141.75 885.676Z" fill-rule="evenodd"/><path d="M2163.75 875.676C2163.75 870.426 2168.45 866.176 2174.25 866.176 2180.04 866.176 2184.75 870.426 2184.75 875.676 2184.75 880.926 2180.04 885.177 2174.25 885.177 2168.45 885.177 2163.75 880.926 2163.75 875.676Z" fill-rule="evenodd"/><path d="M2187.75 868.176C2187.75 862.665 2192.45 858.176 2198.25 858.176 2204.04 858.176 2208.75 862.665 2208.75 868.176 2208.75 873.696 2204.04 878.176 2198.25 878.176 2192.45 878.176 2187.75 873.696 2187.75 868.176Z" fill-rule="evenodd"/><path d="M2210.75 856.676C2210.75 851.426 2215.45 847.176 2221.25 847.176 2227.04 847.176 2231.75 851.426 2231.75 856.676 2231.75 861.926 2227.04 866.177 2221.25 866.177 2215.45 866.177 2210.75 861.926 2210.75 856.676Z" fill-rule="evenodd"/><path d="M2043.75 943.176C2043.75 937.646 2048.45 933.176 2054.25 933.176 2060.04 933.176 2064.75 937.646 2064.75 943.176 2064.75 948.696 2060.04 953.176 2054.25 953.176 2048.45 953.176 2043.75 948.696 2043.75 943.176Z" fill-rule="evenodd"/><path d="M2069.75 935.176C2069.75 929.665 2074.23 925.176 2079.75 925.176 2085.26 925.176 2089.75 929.665 2089.75 935.176 2089.75 940.696 2085.26 945.176 2079.75 945.176 2074.23 945.176 2069.75 940.696 2069.75 935.176Z" fill-rule="evenodd"/><path d="M2232.75 871.176C2232.75 865.646 2237 861.176 2242.25 861.176 2247.5 861.176 2251.75 865.646 2251.75 871.176 2251.75 876.696 2247.5 881.176 2242.25 881.176 2237 881.176 2232.75 876.696 2232.75 871.176Z" fill-rule="evenodd"/><path d="M2093.75 926.676C2093.75 921.426 2098.23 917.176 2103.75 917.176 2109.26 917.176 2113.75 921.426 2113.75 926.676 2113.75 931.927 2109.26 936.177 2103.75 936.177 2098.23 936.177 2093.75 931.927 2093.75 926.676Z" fill-rule="evenodd"/><path d="M2115.75 917.176C2115.75 911.665 2120.45 907.175 2126.25 907.175 2132.04 907.175 2136.75 911.665 2136.75 917.176 2136.75 922.696 2132.04 927.176 2126.25 927.176 2120.45 927.176 2115.75 922.696 2115.75 917.176Z" fill-rule="evenodd"/><path d="M2139.75 909.176C2139.75 903.665 2144.45 899.176 2150.25 899.176 2156.04 899.176 2160.75 903.665 2160.75 909.176 2160.75 914.696 2156.04 919.176 2150.25 919.176 2144.45 919.176 2139.75 914.696 2139.75 909.176Z" fill-rule="evenodd"/><path d="M2163.75 899.176C2163.75 893.665 2168.22 889.176 2173.75 889.176 2179.27 889.176 2183.75 893.665 2183.75 899.176 2183.75 904.696 2179.27 909.176 2173.75 909.176 2168.22 909.176 2163.75 904.696 2163.75 899.176Z" fill-rule="evenodd"/><path d="M2187.75 891.176C2187.75 885.665 2192.22 881.176 2197.75 881.176 2203.27 881.176 2207.75 885.665 2207.75 891.176 2207.75 896.696 2203.27 901.176 2197.75 901.176 2192.22 901.176 2187.75 896.696 2187.75 891.176Z" fill-rule="evenodd"/><path d="M2210.75 879.676C2210.75 874.426 2215 870.176 2220.25 870.176 2225.5 870.176 2229.75 874.426 2229.75 879.676 2229.75 884.926 2225.5 889.177 2220.25 889.177 2215 889.177 2210.75 884.926 2210.75 879.676Z" fill-rule="evenodd"/><path d="M2042.75 965.676C2042.75 960.426 2047.45 956.176 2053.25 956.176 2059.04 956.176 2063.75 960.426 2063.75 965.676 2063.75 970.926 2059.04 975.177 2053.25 975.177 2047.45 975.177 2042.75 970.926 2042.75 965.676Z" fill-rule="evenodd"/><path d="M2069.75 958.176C2069.75 952.665 2074 948.176 2079.25 948.176 2084.5 948.176 2088.75 952.665 2088.75 958.176 2088.75 963.696 2084.5 968.176 2079.25 968.176 2074 968.176 2069.75 963.696 2069.75 958.176Z" fill-rule="evenodd"/><path d="M2231.75 893.676C2231.75 888.426 2236 884.176 2241.25 884.176 2246.5 884.176 2250.75 888.426 2250.75 893.676 2250.75 898.927 2246.5 903.177 2241.25 903.177 2236 903.177 2231.75 898.927 2231.75 893.676Z" fill-rule="evenodd"/><path d="M2093.75 949.176C2093.75 943.646 2098 939.176 2103.25 939.176 2108.5 939.176 2112.75 943.646 2112.75 949.176 2112.75 954.696 2108.5 959.176 2103.25 959.176 2098 959.176 2093.75 954.696 2093.75 949.176Z" fill-rule="evenodd"/><path d="M2114.75 940.176C2114.75 934.665 2119.45 930.176 2125.25 930.176 2131.04 930.176 2135.75 934.665 2135.75 940.176 2135.75 945.696 2131.04 950.176 2125.25 950.176 2119.45 950.176 2114.75 945.696 2114.75 940.176Z" fill-rule="evenodd"/><path d="M2139.75 931.176C2139.75 925.646 2144.22 921.176 2149.75 921.176 2155.27 921.176 2159.75 925.646 2159.75 931.176 2159.75 936.696 2155.27 941.176 2149.75 941.176 2144.22 941.176 2139.75 936.696 2139.75 931.176Z" fill-rule="evenodd"/><path d="M2162.75 922.176C2162.75 916.665 2167 912.176 2172.25 912.176 2177.5 912.176 2181.75 916.665 2181.75 922.176 2181.75 927.696 2177.5 932.176 2172.25 932.176 2167 932.176 2162.75 927.696 2162.75 922.176Z" fill-rule="evenodd"/><path d="M2186.75 913.676C2186.75 907.886 2191.45 903.176 2197.25 903.176 2203.04 903.176 2207.75 907.886 2207.75 913.676 2207.75 919.476 2203.04 924.177 2197.25 924.177 2191.45 924.177 2186.75 919.476 2186.75 913.676Z" fill-rule="evenodd"/><path d="M2209.75 902.676C2209.75 897.426 2214.23 893.176 2219.75 893.176 2225.26 893.176 2229.75 897.426 2229.75 902.676 2229.75 907.927 2225.26 912.177 2219.75 912.177 2214.23 912.177 2209.75 907.927 2209.75 902.676Z" fill-rule="evenodd"/><path d="M2043.75 990.676C2043.75 984.886 2048.22 980.176 2053.75 980.176 2059.27 980.176 2063.75 984.886 2063.75 990.676 2063.75 996.476 2059.27 1001.18 2053.75 1001.18 2048.22 1001.18 2043.75 996.476 2043.75 990.676Z" fill-rule="evenodd"/><path d="M2069.75 982.176C2069.75 976.665 2074.23 972.176 2079.75 972.176 2085.26 972.176 2089.75 976.665 2089.75 982.176 2089.75 987.696 2085.26 992.176 2079.75 992.176 2074.23 992.176 2069.75 987.696 2069.75 982.176Z" fill-rule="evenodd"/><path d="M2231.75 917.676C2231.75 912.426 2236.23 908.176 2241.75 908.176 2247.26 908.176 2251.75 912.426 2251.75 917.676 2251.75 922.927 2247.26 927.177 2241.75 927.177 2236.23 927.177 2231.75 922.927 2231.75 917.676Z" fill-rule="evenodd"/><path d="M2093.75 973.176C2093.75 967.646 2098.23 963.176 2103.75 963.176 2109.26 963.176 2113.75 967.646 2113.75 973.176 2113.75 978.696 2109.26 983.176 2103.75 983.176 2098.23 983.176 2093.75 978.696 2093.75 973.176Z" fill-rule="evenodd"/><path d="M2115.75 964.176C2115.75 958.665 2120.22 954.176 2125.75 954.176 2131.27 954.176 2135.75 958.665 2135.75 964.176 2135.75 969.696 2131.27 974.176 2125.75 974.176 2120.22 974.176 2115.75 969.696 2115.75 964.176Z" fill-rule="evenodd"/><path d="M2139.75 955.676C2139.75 949.886 2144.22 945.176 2149.75 945.176 2155.27 945.176 2159.75 949.886 2159.75 955.676 2159.75 961.476 2155.27 966.177 2149.75 966.177 2144.22 966.177 2139.75 961.476 2139.75 955.676Z" fill-rule="evenodd"/><path d="M2162.75 946.176C2162.75 940.665 2167.45 936.176 2173.25 936.176 2179.04 936.176 2183.75 940.665 2183.75 946.176 2183.75 951.696 2179.04 956.176 2173.25 956.176 2167.45 956.176 2162.75 951.696 2162.75 946.176Z" fill-rule="evenodd"/><path d="M2187.75 938.676C2187.75 933.426 2192.22 929.175 2197.75 929.175 2203.27 929.175 2207.75 933.426 2207.75 938.676 2207.75 943.927 2203.27 948.177 2197.75 948.177 2192.22 948.177 2187.75 943.927 2187.75 938.676Z" fill-rule="evenodd"/><path d="M2209.75 926.676C2209.75 921.426 2214.23 917.176 2219.75 917.176 2225.26 917.176 2229.75 921.426 2229.75 926.676 2229.75 931.927 2225.26 936.177 2219.75 936.177 2214.23 936.177 2209.75 931.927 2209.75 926.676Z" fill-rule="evenodd"/><path d="M2042.75 1013.18C2042.75 1007.67 2047.45 1003.18 2053.25 1003.18 2059.04 1003.18 2063.75 1007.67 2063.75 1013.18 2063.75 1018.7 2059.04 1023.18 2053.25 1023.18 2047.45 1023.18 2042.75 1018.7 2042.75 1013.18Z" fill-rule="evenodd"/><path d="M2069.75 1005.18C2069.75 999.665 2074 995.175 2079.25 995.175 2084.5 995.175 2088.75 999.665 2088.75 1005.18 2088.75 1010.7 2084.5 1015.18 2079.25 1015.18 2074 1015.18 2069.75 1010.7 2069.75 1005.18Z" fill-rule="evenodd"/><path d="M2231.75 940.676C2231.75 935.426 2236 931.176 2241.25 931.176 2246.5 931.176 2250.75 935.426 2250.75 940.676 2250.75 945.927 2246.5 950.177 2241.25 950.177 2236 950.177 2231.75 945.927 2231.75 940.676Z" fill-rule="evenodd"/><path d="M2093.75 996.676C2093.75 990.885 2098 986.176 2103.25 986.176 2108.5 986.176 2112.75 990.885 2112.75 996.676 2112.75 1002.48 2108.5 1007.18 2103.25 1007.18 2098 1007.18 2093.75 1002.48 2093.75 996.676Z" fill-rule="evenodd"/><path d="M2114.75 987.676C2114.75 982.426 2119.45 978.176 2125.25 978.176 2131.04 978.176 2135.75 982.426 2135.75 987.676 2135.75 992.926 2131.04 997.177 2125.25 997.177 2119.45 997.177 2114.75 992.926 2114.75 987.676Z" fill-rule="evenodd"/><path d="M2139.75 978.676C2139.75 972.886 2144.22 968.176 2149.75 968.176 2155.27 968.176 2159.75 972.886 2159.75 978.676 2159.75 984.476 2155.27 989.177 2149.75 989.177 2144.22 989.177 2139.75 984.476 2139.75 978.676Z" fill-rule="evenodd"/><path d="M2162.75 969.176C2162.75 963.665 2167 959.176 2172.25 959.176 2177.5 959.176 2181.75 963.665 2181.75 969.176 2181.75 974.696 2177.5 979.176 2172.25 979.176 2167 979.176 2162.75 974.696 2162.75 969.176Z" fill-rule="evenodd"/><path d="M2186.75 961.176C2186.75 955.646 2191.45 951.175 2197.25 951.175 2203.04 951.175 2207.75 955.646 2207.75 961.176 2207.75 966.696 2203.04 971.176 2197.25 971.176 2191.45 971.176 2186.75 966.696 2186.75 961.176Z" fill-rule="evenodd"/><path d="M2209.75 949.676C2209.75 943.886 2214.23 939.176 2219.75 939.176 2225.26 939.176 2229.75 943.886 2229.75 949.676 2229.75 955.476 2225.26 960.177 2219.75 960.177 2214.23 960.177 2209.75 955.476 2209.75 949.676Z" fill-rule="evenodd"/><path d="M2043.75 1035.68C2043.75 1030.43 2048.22 1026.18 2053.75 1026.18 2059.27 1026.18 2063.75 1030.43 2063.75 1035.68 2063.75 1040.93 2059.27 1045.18 2053.75 1045.18 2048.22 1045.18 2043.75 1040.93 2043.75 1035.68Z" fill-rule="evenodd"/><path d="M2069.75 1027.68C2069.75 1021.89 2074.23 1017.18 2079.75 1017.18 2085.26 1017.18 2089.75 1021.89 2089.75 1027.68 2089.75 1033.48 2085.26 1038.18 2079.75 1038.18 2074.23 1038.18 2069.75 1033.48 2069.75 1027.68Z" fill-rule="evenodd"/><path d="M2231.75 963.676C2231.75 958.426 2236.23 954.176 2241.75 954.176 2247.26 954.176 2251.75 958.426 2251.75 963.676 2251.75 968.926 2247.26 973.177 2241.75 973.177 2236.23 973.177 2231.75 968.926 2231.75 963.676Z" fill-rule="evenodd"/><path d="M2093.75 1018.68C2093.75 1013.43 2098.23 1009.18 2103.75 1009.18 2109.26 1009.18 2113.75 1013.43 2113.75 1018.68 2113.75 1023.93 2109.26 1028.18 2103.75 1028.18 2098.23 1028.18 2093.75 1023.93 2093.75 1018.68Z" fill-rule="evenodd"/><path d="M2115.75 1009.68C2115.75 1003.89 2120.22 999.176 2125.75 999.176 2131.27 999.176 2135.75 1003.89 2135.75 1009.68 2135.75 1015.48 2131.27 1020.18 2125.75 1020.18 2120.22 1020.18 2115.75 1015.48 2115.75 1009.68Z" fill-rule="evenodd"/><path d="M2139.75 1001.18C2139.75 995.665 2144.45 991.176 2150.25 991.176 2156.04 991.176 2160.75 995.665 2160.75 1001.18 2160.75 1006.7 2156.04 1011.18 2150.25 1011.18 2144.45 1011.18 2139.75 1006.7 2139.75 1001.18Z" fill-rule="evenodd"/><path d="M2162.75 991.676C2162.75 985.886 2167.45 981.176 2173.25 981.176 2179.04 981.176 2183.75 985.886 2183.75 991.676 2183.75 997.476 2179.04 1002.18 2173.25 1002.18 2167.45 1002.18 2162.75 997.476 2162.75 991.676Z" fill-rule="evenodd"/><path d="M2187.75 983.176C2187.75 977.665 2192.22 973.175 2197.75 973.175 2203.27 973.175 2207.75 977.665 2207.75 983.176 2207.75 988.696 2203.27 993.176 2197.75 993.176 2192.22 993.176 2187.75 988.696 2187.75 983.176Z" fill-rule="evenodd"/><path d="M2210.75 971.676C2210.75 966.426 2215 962.175 2220.25 962.175 2225.5 962.175 2229.75 966.426 2229.75 971.676 2229.75 976.927 2225.5 981.177 2220.25 981.177 2215 981.177 2210.75 976.927 2210.75 971.676Z" fill-rule="evenodd"/><path d="M2043.75 1060.18C2043.75 1054.67 2048.45 1050.18 2054.25 1050.18 2060.04 1050.18 2064.75 1054.67 2064.75 1060.18 2064.75 1065.7 2060.04 1070.18 2054.25 1070.18 2048.45 1070.18 2043.75 1065.7 2043.75 1060.18Z" fill-rule="evenodd"/><path d="M2070.75 1051.68C2070.75 1045.89 2075 1041.18 2080.25 1041.18 2085.5 1041.18 2089.75 1045.89 2089.75 1051.68 2089.75 1057.48 2085.5 1062.18 2080.25 1062.18 2075 1062.18 2070.75 1057.48 2070.75 1051.68Z" fill-rule="evenodd"/><path d="M2232.75 987.676C2232.75 982.426 2237 978.176 2242.25 978.176 2247.5 978.176 2251.75 982.426 2251.75 987.676 2251.75 992.926 2247.5 997.177 2242.25 997.177 2237 997.177 2232.75 992.926 2232.75 987.676Z" fill-rule="evenodd"/><path d="M2094.75 1042.68C2094.75 1037.43 2099 1033.18 2104.25 1033.18 2109.5 1033.18 2113.75 1037.43 2113.75 1042.68 2113.75 1047.93 2109.5 1052.18 2104.25 1052.18 2099 1052.18 2094.75 1047.93 2094.75 1042.68Z" fill-rule="evenodd"/><path d="M2115.75 1034.68C2115.75 1029.43 2120.45 1025.18 2126.25 1025.18 2132.04 1025.18 2136.75 1029.43 2136.75 1034.68 2136.75 1039.93 2132.04 1044.18 2126.25 1044.18 2120.45 1044.18 2115.75 1039.93 2115.75 1034.68Z" fill-rule="evenodd"/><path d="M2139.75 1025.18C2139.75 1019.67 2144.45 1015.18 2150.25 1015.18 2156.04 1015.18 2160.75 1019.67 2160.75 1025.18 2160.75 1030.7 2156.04 1035.18 2150.25 1035.18 2144.45 1035.18 2139.75 1030.7 2139.75 1025.18Z" fill-rule="evenodd"/><path d="M2163.75 1015.68C2163.75 1009.89 2168.22 1005.18 2173.75 1005.18 2179.27 1005.18 2183.75 1009.89 2183.75 1015.68 2183.75 1021.48 2179.27 1026.18 2173.75 1026.18 2168.22 1026.18 2163.75 1021.48 2163.75 1015.68Z" fill-rule="evenodd"/><path d="M2187.75 1007.68C2187.75 1002.43 2192.45 998.176 2198.25 998.176 2204.04 998.176 2208.75 1002.43 2208.75 1007.68 2208.75 1012.93 2204.04 1017.18 2198.25 1017.18 2192.45 1017.18 2187.75 1012.93 2187.75 1007.68Z" fill-rule="evenodd"/><path d="M2210.75 996.676C2210.75 990.885 2215 986.176 2220.25 986.176 2225.5 986.176 2229.75 990.885 2229.75 996.676 2229.75 1002.48 2225.5 1007.18 2220.25 1007.18 2215 1007.18 2210.75 1002.48 2210.75 996.676Z" fill-rule="evenodd"/><path d="M2043.75 1083.18C2043.75 1077.67 2048.22 1073.18 2053.75 1073.18 2059.27 1073.18 2063.75 1077.67 2063.75 1083.18 2063.75 1088.7 2059.27 1093.18 2053.75 1093.18 2048.22 1093.18 2043.75 1088.7 2043.75 1083.18Z" fill-rule="evenodd"/><path d="M2069.75 1075.68C2069.75 1070.43 2074.23 1066.18 2079.75 1066.18 2085.26 1066.18 2089.75 1070.43 2089.75 1075.68 2089.75 1080.93 2085.26 1085.18 2079.75 1085.18 2074.23 1085.18 2069.75 1080.93 2069.75 1075.68Z" fill-rule="evenodd"/><path d="M2231.75 1011.18C2231.75 1005.67 2236.23 1001.18 2241.75 1001.18 2247.26 1001.18 2251.75 1005.67 2251.75 1011.18 2251.75 1016.7 2247.26 1021.18 2241.75 1021.18 2236.23 1021.18 2231.75 1016.7 2231.75 1011.18Z" fill-rule="evenodd"/><path d="M2093.75 1066.18C2093.75 1060.67 2098.23 1056.18 2103.75 1056.18 2109.26 1056.18 2113.75 1060.67 2113.75 1066.18 2113.75 1071.7 2109.26 1076.18 2103.75 1076.18 2098.23 1076.18 2093.75 1071.7 2093.75 1066.18Z" fill-rule="evenodd"/><path d="M2115.75 1057.68C2115.75 1052.43 2120.22 1048.18 2125.75 1048.18 2131.27 1048.18 2135.75 1052.43 2135.75 1057.68 2135.75 1062.93 2131.27 1067.18 2125.75 1067.18 2120.22 1067.18 2115.75 1062.93 2115.75 1057.68Z" fill-rule="evenodd"/><path d="M2139.75 1048.18C2139.75 1042.67 2144.45 1038.18 2150.25 1038.18 2156.04 1038.18 2160.75 1042.67 2160.75 1048.18 2160.75 1053.7 2156.04 1058.18 2150.25 1058.18 2144.45 1058.18 2139.75 1053.7 2139.75 1048.18Z" fill-rule="evenodd"/><path d="M2162.75 1039.18C2162.75 1033.65 2167.45 1029.18 2173.25 1029.18 2179.04 1029.18 2183.75 1033.65 2183.75 1039.18 2183.75 1044.7 2179.04 1049.18 2173.25 1049.18 2167.45 1049.18 2162.75 1044.7 2162.75 1039.18Z" fill-rule="evenodd"/><path d="M2187.75 1030.68C2187.75 1025.43 2192.22 1021.18 2197.75 1021.18 2203.27 1021.18 2207.75 1025.43 2207.75 1030.68 2207.75 1035.93 2203.27 1040.18 2197.75 1040.18 2192.22 1040.18 2187.75 1035.93 2187.75 1030.68Z" fill-rule="evenodd"/><path d="M2210.75 1019.18C2210.75 1013.67 2215 1009.18 2220.25 1009.18 2225.5 1009.18 2229.75 1013.67 2229.75 1019.18 2229.75 1024.7 2225.5 1029.18 2220.25 1029.18 2215 1029.18 2210.75 1024.7 2210.75 1019.18Z" fill-rule="evenodd"/><path d="M2043.75 1106.13C2043.75 1100.61 2048.22 1096.13 2053.75 1096.13 2059.27 1096.13 2063.75 1100.61 2063.75 1106.13 2063.75 1111.66 2059.27 1116.13 2053.75 1116.13 2048.22 1116.13 2043.75 1111.66 2043.75 1106.13Z" fill-rule="evenodd"/><path d="M2069.75 1098.14C2069.75 1092.07 2074.23 1087.14 2079.75 1087.14 2085.26 1087.14 2089.75 1092.07 2089.75 1098.14 2089.75 1104.21 2085.26 1109.14 2079.75 1109.14 2074.23 1109.14 2069.75 1104.21 2069.75 1098.14Z" fill-rule="evenodd"/><path d="M2231.75 1033.18C2231.75 1027.65 2236.23 1023.18 2241.75 1023.18 2247.26 1023.18 2251.75 1027.65 2251.75 1033.18 2251.75 1038.7 2247.26 1043.18 2241.75 1043.18 2236.23 1043.18 2231.75 1038.7 2231.75 1033.18Z" fill-rule="evenodd"/><path d="M2093.75 1088.68C2093.75 1083.43 2098.23 1079.18 2103.75 1079.18 2109.26 1079.18 2113.75 1083.43 2113.75 1088.68 2113.75 1093.93 2109.26 1098.18 2103.75 1098.18 2098.23 1098.18 2093.75 1093.93 2093.75 1088.68Z" fill-rule="evenodd"/><path d="M2115.75 1079.68C2115.75 1073.89 2120.22 1069.18 2125.75 1069.18 2131.27 1069.18 2135.75 1073.89 2135.75 1079.68 2135.75 1085.48 2131.27 1090.18 2125.75 1090.18 2120.22 1090.18 2115.75 1085.48 2115.75 1079.68Z" fill-rule="evenodd"/><path d="M2139.75 1070.68C2139.75 1065.43 2144.45 1061.18 2150.25 1061.18 2156.04 1061.18 2160.75 1065.43 2160.75 1070.68 2160.75 1075.93 2156.04 1080.18 2150.25 1080.18 2144.45 1080.18 2139.75 1075.93 2139.75 1070.68Z" fill-rule="evenodd"/><path d="M2162.75 1061.68C2162.75 1055.89 2167.45 1051.18 2173.25 1051.18 2179.04 1051.18 2183.75 1055.89 2183.75 1061.68 2183.75 1067.48 2179.04 1072.18 2173.25 1072.18 2167.45 1072.18 2162.75 1067.48 2162.75 1061.68Z" fill-rule="evenodd"/><path d="M2187.75 1053.18C2187.75 1047.67 2192.22 1043.18 2197.75 1043.18 2203.27 1043.18 2207.75 1047.67 2207.75 1053.18 2207.75 1058.7 2203.27 1063.18 2197.75 1063.18 2192.22 1063.18 2187.75 1058.7 2187.75 1053.18Z" fill-rule="evenodd"/><path d="M2210.75 1041.68C2210.75 1036.43 2215 1032.18 2220.25 1032.18 2225.5 1032.18 2229.75 1036.43 2229.75 1041.68 2229.75 1046.93 2225.5 1051.18 2220.25 1051.18 2215 1051.18 2210.75 1046.93 2210.75 1041.68Z" fill-rule="evenodd"/><path d="M2043.75 1131.18C2043.75 1125.67 2048.45 1121.18 2054.25 1121.18 2060.04 1121.18 2064.75 1125.67 2064.75 1131.18 2064.75 1136.7 2060.04 1141.18 2054.25 1141.18 2048.45 1141.18 2043.75 1136.7 2043.75 1131.18Z" fill-rule="evenodd"/><path d="M2070.75 1122.68C2070.75 1116.89 2075 1112.18 2080.25 1112.18 2085.5 1112.18 2089.75 1116.89 2089.75 1122.68 2089.75 1128.48 2085.5 1133.18 2080.25 1133.18 2075 1133.18 2070.75 1128.48 2070.75 1122.68Z" fill-rule="evenodd"/><path d="M2232.75 1057.68C2232.75 1052.43 2237 1048.18 2242.25 1048.18 2247.5 1048.18 2251.75 1052.43 2251.75 1057.68 2251.75 1062.93 2247.5 1067.18 2242.25 1067.18 2237 1067.18 2232.75 1062.93 2232.75 1057.68Z" fill-rule="evenodd"/><path d="M2094.75 1113.68C2094.75 1108.43 2099 1104.18 2104.25 1104.18 2109.5 1104.18 2113.75 1108.43 2113.75 1113.68 2113.75 1118.93 2109.5 1123.18 2104.25 1123.18 2099 1123.18 2094.75 1118.93 2094.75 1113.68Z" fill-rule="evenodd"/><path d="M2115.75 1104.14C2115.75 1098.07 2120.45 1093.14 2126.25 1093.14 2132.04 1093.14 2136.75 1098.07 2136.75 1104.14 2136.75 1110.21 2132.04 1115.14 2126.25 1115.14 2120.45 1115.14 2115.75 1110.21 2115.75 1104.14Z" fill-rule="evenodd"/><path d="M2139.75 1095.63C2139.75 1089.85 2144.45 1085.13 2150.25 1085.13 2156.04 1085.13 2160.75 1089.85 2160.75 1095.63 2160.75 1101.43 2156.04 1106.13 2150.25 1106.13 2144.45 1106.13 2139.75 1101.43 2139.75 1095.63Z" fill-rule="evenodd"/><path d="M2163.75 1085.68C2163.75 1079.89 2168.22 1075.18 2173.75 1075.18 2179.27 1075.18 2183.75 1079.89 2183.75 1085.68 2183.75 1091.48 2179.27 1096.18 2173.75 1096.18 2168.22 1096.18 2163.75 1091.48 2163.75 1085.68Z" fill-rule="evenodd"/><path d="M2187.75 1077.68C2187.75 1072.43 2192.45 1068.18 2198.25 1068.18 2204.04 1068.18 2208.75 1072.43 2208.75 1077.68 2208.75 1082.93 2204.04 1087.18 2198.25 1087.18 2192.45 1087.18 2187.75 1082.93 2187.75 1077.68Z" fill-rule="evenodd"/><path d="M2210.75 1065.68C2210.75 1060.43 2215 1056.18 2220.25 1056.18 2225.5 1056.18 2229.75 1060.43 2229.75 1065.68 2229.75 1070.93 2225.5 1075.18 2220.25 1075.18 2215 1075.18 2210.75 1070.93 2210.75 1065.68Z" fill-rule="evenodd"/></g></svg>